<svg xmlns="http://www.w3.org/2000/svg" width="24" height="24" fill="none" viewBox="0 0 24 24"><path fill="#fff" d="M8.75 5C8.75 4.44772 9.19772 4 9.75 4H14.25C14.8023 4 15.25 4.44772 15.25 5V10.5H8.75V5Z"/><path fill="#fff" d="M1.5 12.5C1.5 11.9477 1.94772 11.5 2.5 11.5H8V18H2.5C1.94772 18 1.5 17.5523 1.5 17V12.5Z"/><rect width="6.5" height="6.5" x="8.75" y="11.5" fill="#fff"/><path fill="#fff" d="M16 11.5H21.5C22.0523 11.5 22.5 11.9477 22.5 12.5V17C22.5 17.5523 22.0523 18 21.5 18H16V11.5Z"/></svg>