<?xml version="1.0" encoding="UTF-8"?>
<!DOCTYPE svg PUBLIC "-//W3C//DTD SVG 1.1//EN" "http://www.w3.org/Graphics/SVG/1.1/DTD/svg11.dtd">
<svg xmlns="http://www.w3.org/2000/svg" version="1.1" width="610px" height="610px" style="shape-rendering:geometricPrecision; text-rendering:geometricPrecision; image-rendering:optimizeQuality; fill-rule:evenodd; clip-rule:evenodd" xmlns:xlink="http://www.w3.org/1999/xlink">
<g><path style="opacity:0.991" fill="#363636" d="M 434.5,83.5 C 346.167,83.5 257.833,83.5 169.5,83.5C 169.5,68.8333 169.5,54.1667 169.5,39.5C 257.833,39.5 346.167,39.5 434.5,39.5C 434.5,54.1667 434.5,68.8333 434.5,83.5 Z"/></g>
<g><path style="opacity:0.978" fill="#363636" d="M 169.5,83.5 C 169.5,97.5 169.5,111.5 169.5,125.5C 141.167,125.5 112.833,125.5 84.5,125.5C 83.504,139.99 83.1707,154.657 83.5,169.5C 70.1667,169.5 56.8333,169.5 43.5,169.5C 43.5,154.5 43.5,139.5 43.5,124.5C 56.8333,124.5 70.1667,124.5 83.5,124.5C 83.5,110.833 83.5,97.1667 83.5,83.5C 112.167,83.5 140.833,83.5 169.5,83.5 Z"/></g>
<g><path style="opacity:1" fill="#515151" d="M 169.5,83.5 C 257.833,83.5 346.167,83.5 434.5,83.5C 434.5,83.8333 434.5,84.1667 434.5,84.5C 362.5,84.5 290.5,84.5 218.5,84.5C 202.5,84.5 186.5,84.5 170.5,84.5C 170.5,98.1667 170.5,111.833 170.5,125.5C 170.167,125.5 169.833,125.5 169.5,125.5C 169.5,111.5 169.5,97.5 169.5,83.5 Z"/></g>
<g><path style="opacity:0.978" fill="#363636" d="M 434.5,83.5 C 464.5,83.5 494.5,83.5 524.5,83.5C 524.5,97.1667 524.5,110.833 524.5,124.5C 537.833,124.5 551.167,124.5 564.5,124.5C 564.5,139.5 564.5,154.5 564.5,169.5C 551.167,169.5 537.833,169.5 524.5,169.5C 524.829,154.657 524.496,139.99 523.5,125.5C 507.167,125.5 490.833,125.5 474.5,125.5C 461.167,125.5 447.833,125.5 434.5,125.5C 434.5,111.833 434.5,98.1667 434.5,84.5C 434.5,84.1667 434.5,83.8333 434.5,83.5 Z"/></g>
<g><path style="opacity:1" fill="#626262" d="M 218.5,84.5 C 218.5,98.1667 218.5,111.833 218.5,125.5C 202.5,125.5 186.5,125.5 170.5,125.5C 170.5,111.833 170.5,98.1667 170.5,84.5C 186.5,84.5 202.5,84.5 218.5,84.5 Z"/></g>
<g><path style="opacity:1" fill="#7e7e7e" d="M 218.5,84.5 C 290.5,84.5 362.5,84.5 434.5,84.5C 434.5,98.1667 434.5,111.833 434.5,125.5C 362.5,125.5 290.5,125.5 218.5,125.5C 218.5,111.833 218.5,98.1667 218.5,84.5 Z"/></g>
<g><path style="opacity:1" fill="#626262" d="M 84.5,125.5 C 112.833,125.5 141.167,125.5 169.5,125.5C 169.5,140.167 169.5,154.833 169.5,169.5C 141.167,169.5 112.833,169.5 84.5,169.5C 84.5,154.833 84.5,140.167 84.5,125.5 Z"/></g>
<g><path style="opacity:1" fill="#2e2e2e" d="M 169.5,125.5 C 169.833,125.5 170.167,125.5 170.5,125.5C 186.5,125.5 202.5,125.5 218.5,125.5C 290.5,125.5 362.5,125.5 434.5,125.5C 434.5,140.167 434.5,154.833 434.5,169.5C 419.5,169.5 404.5,169.5 389.5,169.5C 388.504,184.324 388.171,199.324 388.5,214.5C 374.99,214.171 361.656,214.504 348.5,215.5C 348.5,230.167 348.5,244.833 348.5,259.5C 333.833,259.5 319.167,259.5 304.5,259.5C 289.5,259.5 274.5,259.5 259.5,259.5C 259.5,287.833 259.5,316.167 259.5,344.5C 274.5,344.5 289.5,344.5 304.5,344.5C 304.5,329.5 304.5,314.5 304.5,299.5C 332.833,299.5 361.167,299.5 389.5,299.5C 389.5,286.167 389.5,272.833 389.5,259.5C 404.5,259.5 419.5,259.5 434.5,259.5C 434.5,244.833 434.5,230.167 434.5,215.5C 447.833,215.5 461.167,215.5 474.5,215.5C 474.5,200.167 474.5,184.833 474.5,169.5C 474.833,169.5 475.167,169.5 475.5,169.5C 491.325,170.496 507.325,170.83 523.5,170.5C 523.5,185.5 523.5,200.5 523.5,215.5C 537.167,215.5 550.833,215.5 564.5,215.5C 564.5,243.5 564.5,271.5 564.5,299.5C 550.833,299.5 537.167,299.5 523.5,299.5C 523.5,314.5 523.5,329.5 523.5,344.5C 493.833,344.5 464.167,344.5 434.5,344.5C 434.5,359.167 434.5,373.833 434.5,388.5C 464.167,388.5 493.833,388.5 523.5,388.5C 523.5,388.833 523.5,389.167 523.5,389.5C 493.833,389.5 464.167,389.5 434.5,389.5C 346.5,389.5 258.5,389.5 170.5,389.5C 170.5,403.167 170.5,416.833 170.5,430.5C 169.504,417.01 169.171,403.344 169.5,389.5C 156.167,389.5 142.833,389.5 129.5,389.5C 114.5,389.5 99.5,389.5 84.5,389.5C 84.5,389.167 84.5,388.833 84.5,388.5C 112.833,388.5 141.167,388.5 169.5,388.5C 169.5,373.833 169.5,359.167 169.5,344.5C 141.167,344.5 112.833,344.5 84.5,344.5C 84.5,329.5 84.5,314.5 84.5,299.5C 70.8333,299.5 57.1667,299.5 43.5,299.5C 43.5,271.5 43.5,243.5 43.5,215.5C 57.1667,215.5 70.8333,215.5 84.5,215.5C 84.5,200.167 84.5,184.833 84.5,169.5C 112.833,169.5 141.167,169.5 169.5,169.5C 169.5,154.833 169.5,140.167 169.5,125.5 Z"/></g>
<g><path style="opacity:1" fill="#7e7e7e" d="M 434.5,125.5 C 447.833,125.5 461.167,125.5 474.5,125.5C 474.5,140.167 474.5,154.833 474.5,169.5C 461.167,169.5 447.833,169.5 434.5,169.5C 434.5,154.833 434.5,140.167 434.5,125.5 Z"/></g>
<g><path style="opacity:1" fill="#bfbfbf" d="M 474.5,125.5 C 490.833,125.5 507.167,125.5 523.5,125.5C 523.5,140.167 523.5,154.833 523.5,169.5C 507.5,169.5 491.5,169.5 475.5,169.5C 475.167,169.5 474.833,169.5 474.5,169.5C 474.5,154.833 474.5,140.167 474.5,125.5 Z"/></g>
<g><path style="opacity:0.999" fill="#363636" d="M -0.5,169.5 C 14.1667,169.5 28.8333,169.5 43.5,169.5C 43.5,184.5 43.5,199.5 43.5,214.5C 43.5,214.833 43.5,215.167 43.5,215.5C 43.5,243.5 43.5,271.5 43.5,299.5C 43.5,314.5 43.5,329.5 43.5,344.5C 43.5,344.833 43.5,345.167 43.5,345.5C 43.5,373.833 43.5,402.167 43.5,430.5C 28.8333,430.5 14.1667,430.5 -0.5,430.5C -0.5,343.5 -0.5,256.5 -0.5,169.5 Z"/></g>
<g><path style="opacity:1" fill="#4a4a4a" d="M 84.5,125.5 C 84.5,140.167 84.5,154.833 84.5,169.5C 84.5,184.833 84.5,200.167 84.5,215.5C 70.8333,215.5 57.1667,215.5 43.5,215.5C 43.5,215.167 43.5,214.833 43.5,214.5C 56.8333,214.5 70.1667,214.5 83.5,214.5C 83.5,199.5 83.5,184.5 83.5,169.5C 83.1707,154.657 83.504,139.99 84.5,125.5 Z"/></g>
<g><path style="opacity:1" fill="#5e5e5d" d="M 523.5,125.5 C 524.496,139.99 524.829,154.657 524.5,169.5C 537.833,169.5 551.167,169.5 564.5,169.5C 564.5,184.833 564.5,200.167 564.5,215.5C 550.833,215.5 537.167,215.5 523.5,215.5C 523.5,200.5 523.5,185.5 523.5,170.5C 507.325,170.83 491.325,170.496 475.5,169.5C 491.5,169.5 507.5,169.5 523.5,169.5C 523.5,154.833 523.5,140.167 523.5,125.5 Z"/></g>
<g><path style="opacity:0.999" fill="#1d1300" d="M 564.5,169.5 C 579.5,169.5 594.5,169.5 609.5,169.5C 609.5,256.5 609.5,343.5 609.5,430.5C 594.5,430.5 579.5,430.5 564.5,430.5C 564.5,401.833 564.5,373.167 564.5,344.5C 564.5,329.5 564.5,314.5 564.5,299.5C 564.5,271.5 564.5,243.5 564.5,215.5C 564.5,200.167 564.5,184.833 564.5,169.5 Z"/></g>
<g><path style="opacity:1" fill="#626262" d="M 43.5,169.5 C 56.8333,169.5 70.1667,169.5 83.5,169.5C 83.5,184.5 83.5,199.5 83.5,214.5C 70.1667,214.5 56.8333,214.5 43.5,214.5C 43.5,199.5 43.5,184.5 43.5,169.5 Z"/></g>
<g><path style="opacity:1" fill="#fd1414" d="M 389.5,169.5 C 404.5,169.5 419.5,169.5 434.5,169.5C 447.833,169.5 461.167,169.5 474.5,169.5C 474.5,184.833 474.5,200.167 474.5,215.5C 461.167,215.5 447.833,215.5 434.5,215.5C 434.5,230.167 434.5,244.833 434.5,259.5C 419.5,259.5 404.5,259.5 389.5,259.5C 389.5,272.833 389.5,286.167 389.5,299.5C 361.167,299.5 332.833,299.5 304.5,299.5C 304.5,286.167 304.5,272.833 304.5,259.5C 319.167,259.5 333.833,259.5 348.5,259.5C 348.5,244.833 348.5,230.167 348.5,215.5C 362.167,215.5 375.833,215.5 389.5,215.5C 389.5,200.167 389.5,184.833 389.5,169.5 Z"/></g>
<g><path style="opacity:1" fill="#7e7e7e" d="M 524.5,170.5 C 537.5,170.5 550.5,170.5 563.5,170.5C 563.5,185.167 563.5,199.833 563.5,214.5C 550.5,214.5 537.5,214.5 524.5,214.5C 524.5,199.833 524.5,185.167 524.5,170.5 Z"/></g>
<g><path style="opacity:1" fill="#922121" d="M 389.5,169.5 C 389.5,184.833 389.5,200.167 389.5,215.5C 375.833,215.5 362.167,215.5 348.5,215.5C 361.656,214.504 374.99,214.171 388.5,214.5C 388.171,199.324 388.504,184.324 389.5,169.5 Z"/></g>
<g><path style="opacity:1" fill="#636363" d="M 304.5,259.5 C 304.5,272.833 304.5,286.167 304.5,299.5C 304.5,314.5 304.5,329.5 304.5,344.5C 289.5,344.5 274.5,344.5 259.5,344.5C 259.5,316.167 259.5,287.833 259.5,259.5C 274.5,259.5 289.5,259.5 304.5,259.5 Z"/></g>
<g><path style="opacity:1" fill="#161616" d="M 43.5,299.5 C 57.1667,299.5 70.8333,299.5 84.5,299.5C 84.5,314.5 84.5,329.5 84.5,344.5C 70.8333,344.5 57.1667,344.5 43.5,344.5C 43.5,329.5 43.5,314.5 43.5,299.5 Z"/></g>
<g><path style="opacity:1" fill="#161615" d="M 564.5,299.5 C 564.5,314.5 564.5,329.5 564.5,344.5C 550.833,344.5 537.167,344.5 523.5,344.5C 523.5,329.5 523.5,314.5 523.5,299.5C 537.167,299.5 550.833,299.5 564.5,299.5 Z"/></g>
<g><path style="opacity:1" fill="#7e7e7d" d="M 43.5,345.5 C 56.8333,345.5 70.1667,345.5 83.5,345.5C 83.1707,360.01 83.5041,374.343 84.5,388.5C 84.5,388.833 84.5,389.167 84.5,389.5C 84.5,419.167 84.5,448.833 84.5,478.5C 83.5036,462.675 83.1703,446.675 83.5,430.5C 70.1667,430.5 56.8333,430.5 43.5,430.5C 43.5,402.167 43.5,373.833 43.5,345.5 Z"/></g>
<g><path style="opacity:1" fill="#575757" d="M 43.5,345.5 C 43.5,345.167 43.5,344.833 43.5,344.5C 57.1667,344.5 70.8333,344.5 84.5,344.5C 84.5,359.167 84.5,373.833 84.5,388.5C 83.5041,374.343 83.1707,360.01 83.5,345.5C 70.1667,345.5 56.8333,345.5 43.5,345.5 Z"/></g>
<g><path style="opacity:1" fill="#161616" d="M 84.5,344.5 C 112.833,344.5 141.167,344.5 169.5,344.5C 169.5,359.167 169.5,373.833 169.5,388.5C 141.167,388.5 112.833,388.5 84.5,388.5C 84.5,373.833 84.5,359.167 84.5,344.5 Z"/></g>
<g><path style="opacity:1" fill="#151515" d="M 523.5,344.5 C 523.5,359.167 523.5,373.833 523.5,388.5C 493.833,388.5 464.167,388.5 434.5,388.5C 434.5,373.833 434.5,359.167 434.5,344.5C 464.167,344.5 493.833,344.5 523.5,344.5 Z"/></g>
<g><path style="opacity:1" fill="#626261" d="M 563.5,430.5 C 550.167,430.5 536.833,430.5 523.5,430.5C 523.5,446.5 523.5,462.5 523.5,478.5C 493.833,478.5 464.167,478.5 434.5,478.5C 434.5,492.5 434.5,506.5 434.5,520.5C 346.167,520.5 257.833,520.5 169.5,520.5C 169.5,520.167 169.5,519.833 169.5,519.5C 242.833,519.5 316.167,519.5 389.5,519.5C 389.5,489.833 389.5,460.167 389.5,430.5C 404.5,430.5 419.5,430.5 434.5,430.5C 434.5,416.833 434.5,403.167 434.5,389.5C 464.167,389.5 493.833,389.5 523.5,389.5C 524.496,375.01 524.829,360.343 524.5,345.5C 537.5,345.5 550.5,345.5 563.5,345.5C 563.5,373.833 563.5,402.167 563.5,430.5 Z"/></g>
<g><path style="opacity:1" fill="#4c4a47" d="M 523.5,344.5 C 537.167,344.5 550.833,344.5 564.5,344.5C 564.5,373.167 564.5,401.833 564.5,430.5C 564.167,430.5 563.833,430.5 563.5,430.5C 563.5,402.167 563.5,373.833 563.5,345.5C 550.5,345.5 537.5,345.5 524.5,345.5C 524.829,360.343 524.496,375.01 523.5,389.5C 523.5,389.167 523.5,388.833 523.5,388.5C 523.5,373.833 523.5,359.167 523.5,344.5 Z"/></g>
<g><path style="opacity:1" fill="#bfbfbf" d="M 84.5,389.5 C 99.5,389.5 114.5,389.5 129.5,389.5C 129.5,419.167 129.5,448.833 129.5,478.5C 114.5,478.5 99.5,478.5 84.5,478.5C 84.5,448.833 84.5,419.167 84.5,389.5 Z"/></g>
<g><path style="opacity:1" fill="#7e7e7e" d="M 129.5,389.5 C 142.833,389.5 156.167,389.5 169.5,389.5C 169.171,403.344 169.504,417.01 170.5,430.5C 243.5,430.5 316.5,430.5 389.5,430.5C 389.5,460.167 389.5,489.833 389.5,519.5C 316.167,519.5 242.833,519.5 169.5,519.5C 169.5,505.833 169.5,492.167 169.5,478.5C 156.167,478.5 142.833,478.5 129.5,478.5C 129.5,448.833 129.5,419.167 129.5,389.5 Z"/></g>
<g><path style="opacity:1" fill="#161616" d="M 434.5,389.5 C 434.5,403.167 434.5,416.833 434.5,430.5C 419.5,430.5 404.5,430.5 389.5,430.5C 316.5,430.5 243.5,430.5 170.5,430.5C 170.5,416.833 170.5,403.167 170.5,389.5C 258.5,389.5 346.5,389.5 434.5,389.5 Z"/></g>
<g><path style="opacity:0.98" fill="#1d1401" d="M 43.5,430.5 C 56.8333,430.5 70.1667,430.5 83.5,430.5C 83.1703,446.675 83.5036,462.675 84.5,478.5C 99.5,478.5 114.5,478.5 129.5,478.5C 142.833,478.5 156.167,478.5 169.5,478.5C 169.5,492.167 169.5,505.833 169.5,519.5C 169.5,519.833 169.5,520.167 169.5,520.5C 140.833,520.5 112.167,520.5 83.5,520.5C 83.5,506.833 83.5,493.167 83.5,479.5C 70.1667,479.5 56.8333,479.5 43.5,479.5C 43.5,463.167 43.5,446.833 43.5,430.5 Z"/></g>
<g><path style="opacity:0.98" fill="#1d1401" d="M 563.5,430.5 C 563.833,430.5 564.167,430.5 564.5,430.5C 564.5,446.833 564.5,463.167 564.5,479.5C 551.167,479.5 537.833,479.5 524.5,479.5C 524.5,493.167 524.5,506.833 524.5,520.5C 494.5,520.5 464.5,520.5 434.5,520.5C 434.5,506.5 434.5,492.5 434.5,478.5C 464.167,478.5 493.833,478.5 523.5,478.5C 523.5,462.5 523.5,446.5 523.5,430.5C 536.833,430.5 550.167,430.5 563.5,430.5 Z"/></g>
<g><path style="opacity:0.993" fill="#1d1300" d="M 169.5,520.5 C 257.833,520.5 346.167,520.5 434.5,520.5C 434.5,535.167 434.5,549.833 434.5,564.5C 346.167,564.5 257.833,564.5 169.5,564.5C 169.5,549.833 169.5,535.167 169.5,520.5 Z"/></g>
</svg>
